<?xml version="1.0" standalone="no"?>
<!DOCTYPE svg PUBLIC "-//W3C//DTD SVG 20010904//EN"
 "http://www.w3.org/TR/2001/REC-SVG-20010904/DTD/svg10.dtd">
<svg version="1.0" xmlns="http://www.w3.org/2000/svg"
 width="1280.000000pt" height="1256.000000pt" viewBox="0 0 1280.000000 1256.000000"
 preserveAspectRatio="xMidYMid meet">
<metadata>
Created by potrace 1.15, written by Peter Selinger 2001-2017
</metadata>
<g transform="translate(0.000000,1256.000000) scale(0.100000,-0.100000)"
fill="#000000" stroke="none">
<path d="M4390 12514 c-11 -25 -20 -51 -20 -58 0 -7 25 -68 56 -137 263 -584
604 -1398 789 -1881 6 -14 -6 -21 -67 -39 -40 -12 -74 -23 -75 -24 -2 -1 2
-29 8 -62 l11 -61 98 -12 98 -12 23 -52 c38 -89 59 -158 59 -196 l0 -36 -75
-18 -75 -18 0 -59 c0 -68 -2 -67 107 -48 46 8 63 15 59 24 -3 8 -8 31 -11 52
l-6 38 25 -30 c28 -32 122 -246 193 -438 31 -85 41 -122 34 -131 -6 -7 -43
-26 -83 -41 -95 -37 -98 -40 -98 -90 0 -23 6 -47 13 -53 26 -21 123 -42 197
-42 l76 0 41 -132 c23 -73 52 -169 64 -213 l21 -79 -25 -22 c-14 -12 -55 -32
-91 -45 l-66 -24 0 -57 0 -58 75 0 c41 0 75 1 75 3 0 1 -9 26 -20 56 -12 29
-20 54 -18 55 2 1 31 -4 66 -12 61 -14 62 -14 62 -48 0 -19 11 -57 25 -84 51
-101 175 -433 175 -470 0 -15 -12 -18 -83 -22 -60 -3 -95 -10 -130 -28 -27
-13 -50 -27 -52 -30 -2 -4 5 -32 17 -63 l21 -56 115 -3 115 -3 19 -55 c11 -30
27 -111 38 -180 20 -139 46 -477 37 -487 -37 -36 -509 -60 -1847 -93 -1128
-28 -1180 -30 -1625 -84 -367 -45 -877 -115 -980 -136 -49 -9 -50 -9 -81 25
-38 42 -284 400 -688 999 l-296 439 -98 47 -98 47 -170 7 -169 7 -38 -38 -37
-39 56 -185 c52 -174 112 -370 323 -1061 114 -373 133 -441 123 -449 -4 -4
-119 -41 -257 -82 -363 -109 -347 -99 -277 -174 45 -48 50 -51 127 -62 129
-20 407 -79 416 -88 11 -11 -106 -416 -381 -1318 -95 -309 -92 -296 -81 -376
5 -39 12 -73 14 -75 12 -13 418 26 500 47 42 11 7 -40 736 1072 l294 447 36 0
c61 0 491 -54 1196 -150 l290 -40 535 -10 c294 -5 810 -14 1145 -20 336 -5
689 -12 785 -15 96 -3 291 -5 433 -6 185 0 257 -3 257 -12 0 -45 -70 -215
-184 -450 -145 -298 -130 -278 -228 -292 l-48 -7 0 -73 0 -72 107 -21 c58 -12
108 -23 109 -25 2 -2 -10 -39 -26 -82 -16 -44 -52 -148 -80 -231 l-51 -151
-140 -24 -139 -23 0 -56 0 -55 78 -27 c42 -14 89 -31 104 -37 l27 -10 -44
-123 c-23 -68 -60 -166 -80 -218 -20 -52 -47 -123 -60 -158 -12 -35 -25 -65
-28 -68 -3 -3 -46 10 -96 29 l-91 34 0 -73 0 -73 38 -10 c20 -5 51 -13 67 -17
17 -4 33 -8 36 -10 4 -2 -33 -108 -81 -236 l-87 -233 -39 -7 c-21 -3 -56 -9
-76 -13 l-38 -6 0 -69 0 -70 38 0 c21 0 41 -3 44 -6 8 -7 -29 -99 -82 -206
l-44 -87 -74 -3 -74 -3 -23 -57 -23 -58 64 -47 c35 -26 64 -52 64 -58 0 -28
-467 -1168 -762 -1860 l-94 -220 17 -45 17 -45 101 -3 101 -3 120 82 c66 44
120 87 120 94 0 8 -5 26 -12 40 -15 34 -8 38 36 20 l36 -15 116 72 117 73 270
430 c148 237 502 801 787 1255 284 454 709 1132 944 1508 l428 683 46 -38 45
-37 381 -19 381 -20 83 43 82 43 0 256 0 256 -47 29 c-46 30 -48 30 -317 48
-149 9 -277 19 -284 20 -7 2 85 161 225 390 l238 387 107 45 107 46 1093 0
1093 0 416 39 415 40 340 86 c331 84 342 88 469 154 170 88 266 152 337 225
l58 59 0 63 c0 62 0 63 -47 105 -82 73 -191 138 -398 239 l-200 97 -365 78
-365 77 -1410 17 -1410 16 -128 55 -128 55 -246 393 c-135 216 -244 394 -242
396 2 2 137 12 299 22 l294 17 48 30 48 30 0 253 0 253 -45 31 -46 31 -402 -7
-402 -7 -68 -60 c-37 -33 -69 -58 -70 -56 -10 13 -134 212 -342 549 -422 683
-736 1186 -1313 2105 -640 1020 -681 1084 -729 1143 -43 53 -159 131 -370 251
l-161 91 -96 0 -97 0 -19 -46z"/>
</g>
</svg>
